<svg width="92" height="108" viewBox="0 0 92 108" fill="none" xmlns="http://www.w3.org/2000/svg">
<path d="M36.314 0C37.3842 0 38.4104 0.424944 39.1671 1.18135C39.9238 1.93776 40.3489 2.96366 40.3489 4.03338V17.478C40.3489 18.5477 39.9238 19.5736 39.1671 20.33C38.4104 21.0864 37.3842 21.5114 36.314 21.5114C35.2439 21.5114 34.2176 21.0864 33.4609 20.33C32.7042 19.5736 32.2791 18.5477 32.2791 17.478V4.03338C32.2791 2.96366 32.7042 1.93776 33.4609 1.18135C34.2176 0.424944 35.2439 0 36.314 0ZM10.5983 10.5944C11.3549 9.83903 12.3804 9.41478 13.4496 9.41478C14.5189 9.41478 15.5444 9.83903 16.301 10.5944L25.7157 20.0056C26.1121 20.3748 26.4301 20.8201 26.6506 21.3149C26.8712 21.8096 26.9897 22.3437 26.9993 22.8853C27.0089 23.4269 26.9092 23.9648 26.7063 24.467C26.5033 24.9693 26.2013 25.4255 25.8181 25.8085C25.435 26.1915 24.9786 26.4934 24.4762 26.6963C23.9738 26.8991 23.4356 26.9988 22.8939 26.9892C22.3521 26.9796 21.8178 26.8611 21.3229 26.6407C20.8279 26.4202 20.3825 26.1024 20.0131 25.7061L10.5983 16.2949C9.84271 15.5386 9.4183 14.5135 9.4183 13.4446C9.4183 12.3758 9.84271 11.3506 10.5983 10.5944ZM62.0298 10.5944C62.7854 11.3506 63.2098 12.3758 63.2098 13.4446C63.2098 14.5135 62.7854 15.5386 62.0298 16.2949L52.615 25.7061C52.2456 26.1024 51.8002 26.4202 51.3052 26.6407C50.8103 26.8611 50.276 26.9796 49.7342 26.9892C49.1924 26.9988 48.6543 26.8991 48.1519 26.6963C47.6495 26.4934 47.1931 26.1915 46.8099 25.8085C46.4268 25.4255 46.1247 24.9693 45.9218 24.467C45.7189 23.9648 45.6192 23.4269 45.6288 22.8853C45.6383 22.3437 45.7569 21.8096 45.9774 21.3149C46.198 20.8201 46.5159 20.3748 46.9124 20.0056L56.3271 10.5944C57.0836 9.83903 58.1092 9.41478 59.1784 9.41478C60.2477 9.41478 61.2732 9.83903 62.0298 10.5944ZM0 36.3004C0 35.2307 0.425103 34.2048 1.18179 33.4484C1.93848 32.692 2.96477 32.2671 4.03489 32.2671H17.4845C18.5547 32.2671 19.5809 32.692 20.3376 33.4484C21.0943 34.2048 21.5194 35.2307 21.5194 36.3004C21.5194 37.3702 21.0943 38.3961 20.3376 39.1525C19.5809 39.9089 18.5547 40.3338 17.4845 40.3338H4.03489C2.96477 40.3338 1.93848 39.9089 1.18179 39.1525C0.425103 38.3961 0 37.3702 0 36.3004ZM32.2791 40.2639C32.2791 34.2031 39.3913 30.9334 43.9911 34.8807L89.5101 73.8808C94.4057 78.0755 91.619 86.0939 85.1793 86.3574L64.5206 87.1802C62.2987 87.2663 60.2114 88.2558 58.7265 89.9068L44.6636 105.621C40.322 110.477 32.2791 107.401 32.2791 100.888V40.2693V40.2639Z" fill="black"/>
</svg>
