<svg width="103" height="93" viewBox="0 0 103 93" fill="none" xmlns="http://www.w3.org/2000/svg">
<path d="M12.875 0C9.46034 0 6.18553 1.36085 3.771 3.78319C1.35647 6.20553 0 9.49092 0 12.9166V59.4165C0 62.8422 1.35647 66.1276 3.771 68.5499C6.18553 70.9723 9.46034 72.3331 12.875 72.3331H36.05V34.8749C36.0501 33.204 36.5117 31.5658 37.3836 30.1422C38.2556 28.7186 39.5036 27.5651 40.9893 26.81C42.475 26.0548 44.1403 25.7275 45.8002 25.8642C47.4601 26.001 49.0498 26.5965 50.3927 27.5847L89.0178 66.3346C90.949 67.7555 92.185 69.8428 92.5713 72.1006C95.5074 71.5305 98.1542 69.9528 100.057 67.6383C101.96 65.3237 103.001 62.4168 103 59.4165V12.9166C103 9.49092 101.644 6.20553 99.229 3.78319C96.8145 1.36085 93.5397 0 90.125 0H12.875ZM47.792 32.1366C47.2518 31.5953 46.5639 31.2268 45.8151 31.0776C45.0663 30.9283 44.2902 31.0051 43.5848 31.2981C42.8795 31.5911 42.2765 32.0872 41.852 32.7238C41.4276 33.3605 41.2007 34.109 41.2 34.8749V89.1247C41.1999 89.9517 41.4636 90.7569 41.9523 91.4228C42.4411 92.0887 43.1294 92.5802 43.9166 92.8255C44.7037 93.0709 45.5485 93.0571 46.3273 92.7864C47.1061 92.5156 47.7782 92.0019 48.2452 91.3205L60.9503 72.7826L82.8893 77.4171C83.7035 77.589 84.5514 77.4924 85.3065 77.1418C86.0617 76.7912 86.6839 76.2053 87.0803 75.4714C87.4768 74.7374 87.6264 73.8947 87.5069 73.0685C87.3874 72.2424 87.0051 71.477 86.417 70.8864L47.792 32.1366Z" fill="black"/>
</svg>
