<svg width="1038" height="775" viewBox="0 0 1038 775" fill="none" xmlns="http://www.w3.org/2000/svg">
<path d="M747.832 331.189C738.68 312.824 710.17 317.12 702.419 338.821C703.4 337.371 707.134 339.153 746.316 330.818C746.609 330.753 746.914 330.774 747.194 330.881C747.475 330.988 747.717 331.174 747.892 331.418C747.881 331.325 747.859 331.254 747.832 331.189Z" fill="black"/>
<path d="M747.995 331.478L747.897 331.396C747.723 331.152 747.48 330.966 747.2 330.859C746.92 330.752 746.614 330.731 746.322 330.796C704.894 339.616 702.294 336.972 702.212 339.436C700.547 345.785 701.297 352.525 704.319 358.351C707.34 364.178 712.417 368.675 718.565 370.971C724.7 372.898 731.343 372.381 737.105 369.526C742.868 366.672 747.305 361.702 749.489 355.653C750.935 351.741 751.55 347.571 751.292 343.408C751.035 339.245 749.912 335.182 747.995 331.478Z" fill="white"/>
<path d="M663.81 345.302C660.479 345.907 661.891 350.987 665.211 350.382L693.185 345.285C696.516 344.68 695.104 339.6 691.785 340.205L663.81 345.302Z" fill="black"/>
<path d="M619.274 460.019C599.176 401.54 559.885 356.738 499.951 344.953C481.05 340.682 461.364 341.388 442.818 347.002C443.009 347.995 443.946 352.906 444.23 354.367C444.862 357.687 439.776 359.098 439.144 355.773C438.899 354.481 438.021 349.902 437.83 348.905C427.531 353.124 418.584 360.082 411.96 369.025C409.452 372.422 407.434 376.154 405.963 380.112C407.114 379.845 440.305 372.579 455.682 368.889C456.062 368.792 456.464 368.846 456.804 369.039C457.144 369.232 457.397 369.549 457.509 369.924C458.691 375.582 460.507 381.088 461.788 386.73C461.879 387.115 461.816 387.522 461.613 387.862C461.409 388.202 461.081 388.449 460.697 388.55C458.795 389.019 447.108 385.105 437.612 387.553C430.809 389.308 422.464 395.593 425.456 403.661C427.402 408.894 433.715 410.578 438.539 411.837C448.668 414.057 458.907 415.748 469.212 416.901C469.457 416.971 469.681 417.102 469.861 417.282C470.042 417.463 470.173 417.686 470.242 417.932C470.444 418.684 470.673 419.425 470.886 420.178C479.701 421.421 488.197 424.339 495.917 428.774C501.413 432.047 506.1 436.519 509.626 441.856C519.054 438.294 529.163 436.897 539.204 437.768C551.102 439.262 562.148 444.728 570.553 453.282C581.867 465.037 589.768 479.651 593.409 495.555C601.858 484.446 609.506 472.66 616.963 460.919C617.097 460.709 617.282 460.536 617.501 460.418C617.72 460.299 617.966 460.239 618.215 460.242C618.464 460.245 618.708 460.312 618.924 460.436C619.14 460.56 619.321 460.738 619.449 460.951C619.432 460.634 619.373 460.321 619.274 460.019Z" fill="white"/>
<path d="M324.748 662.035C311.877 637.503 306.488 609.732 309.251 582.167C295.034 575.816 280.796 569.526 266.694 563.698L266.629 563.66C265.838 563.37 265.177 562.805 264.767 562.069C264.357 561.333 264.225 560.474 264.394 559.648C264.604 559.007 264.98 558.434 265.484 557.986C264.797 554.922 234.958 423.96 234.309 421.088C234.21 420.708 234.263 420.305 234.456 419.964C234.65 419.623 234.969 419.371 235.345 419.262C251.551 415.675 357.994 391.183 359.133 390.916C325.947 358.978 265.299 356.275 231.464 394.732C232.456 398.88 233.246 402.363 234.239 406.806C234.974 410.115 229.878 411.516 229.158 408.207C229.06 407.787 227.332 400.21 227.245 399.84C218.126 411.953 211.509 425.76 207.779 440.455C190.571 440.378 173.678 445.07 158.976 454.012C98.3818 491.624 59.603 583.464 77.4988 655.478C79.5444 664.432 83.4644 672.851 89.0004 680.179C94.5364 687.508 101.563 693.581 109.616 697.996C126.613 707.437 146.749 714.349 166.1 708.718C182.731 703.253 196.906 692.106 206.138 677.233C217.547 659.79 222.448 639.572 226.4 619.37C231.448 674.3 283.293 738.683 341.652 736.333C357.218 735.915 372.208 730.357 384.284 720.525C358.915 705.186 338.79 688.588 324.748 662.035Z" fill="white"/>
<path d="M183.408 770.475C157.46 750.104 125.416 739.051 92.4269 739.094C59.4383 739.136 27.4224 750.272 1.5275 770.71C0.437287 771.549 1.39667 773.283 2.5741 773.239H182.661C182.98 773.227 183.288 773.113 183.538 772.914C183.788 772.715 183.968 772.441 184.051 772.132C184.135 771.823 184.117 771.496 184.002 771.198C183.886 770.9 183.678 770.647 183.408 770.475Z" fill="black"/>
<path d="M820.964 478.586C810.732 431.33 777.993 403.29 745.739 398.455C710.792 393.233 677.791 412.29 654.793 437.027C643.24 449.604 633.153 463.453 624.725 478.308C624.109 475.985 620.168 461.693 619.454 460.908C619.327 460.693 619.147 460.514 618.931 460.389C618.715 460.264 618.47 460.197 618.221 460.193C617.971 460.19 617.725 460.251 617.505 460.37C617.286 460.49 617.101 460.664 616.969 460.875C609.512 472.639 601.864 484.402 593.415 495.511C598.353 514.132 599.149 529.657 602.774 552C608.056 584.576 628.296 591.875 642.229 584.5C642.26 584.105 642.388 583.724 642.6 583.391C642.813 583.057 643.105 582.781 643.45 582.586C653.998 576.508 659.062 565.018 663.303 554.11C663.498 553.443 663.945 552.879 664.549 552.535C665.153 552.191 665.867 552.095 666.54 552.268C667.214 552.455 667.786 552.901 668.131 553.509C668.477 554.117 668.567 554.837 668.383 555.511C663.902 567.04 658.435 578.651 648.023 585.808C689.19 615.751 707.304 642.499 732.166 691.515C740.727 681.983 748.074 671.427 754.041 660.089C755.616 657.08 760.168 659.751 758.593 662.75C752.074 675.107 743.983 686.567 734.521 696.846C734.251 697.172 733.893 697.413 733.491 697.542C733.088 697.671 732.656 697.681 732.248 697.571C721.762 709.174 709.931 719.488 697.006 728.293C678.615 739.947 654.652 743.344 632.684 743.049C599.607 742.602 568.601 733.75 543.919 711.15C519.952 687.985 503.73 657.98 497.47 625.241C494.583 608.973 493.084 592.49 492.99 575.969C464.066 586.571 425.865 600.21 396.441 609.013C394.353 609.634 383.385 612.829 381.674 613.172C380.143 613.264 378.62 612.883 377.313 612.082C374.833 611.046 310.188 582.565 309.234 582.139C307.001 602.867 309.518 623.83 316.596 643.439C323.675 663.048 335.127 680.787 350.085 695.309C362.373 706.408 375.876 716.085 390.335 724.156C420.643 742.112 445.936 755.003 475.77 762.488C530.713 775.83 587.969 776.516 643.215 764.494C670.684 758.329 696.346 745.869 718.178 728.097C766.732 689.616 801.191 636.152 816.183 576.04C824.174 544.603 827.892 510.583 820.964 478.586ZM411.044 632.305C411.718 632.134 412.432 632.231 413.036 632.574C413.641 632.918 414.089 633.482 414.287 634.148C414.914 635.745 425.086 661.823 429.55 673.265C429.736 673.939 429.646 674.66 429.301 675.268C428.955 675.876 428.382 676.322 427.708 676.508C427.035 676.669 426.326 676.569 425.725 676.226C425.124 675.884 424.675 675.326 424.47 674.666C423.843 673.068 413.671 646.991 409.207 635.549C409.027 634.879 409.119 634.165 409.462 633.562C409.805 632.959 410.371 632.516 411.038 632.327L411.044 632.305ZM379.624 678.601L386.634 634.148C386.821 633.474 387.268 632.902 387.875 632.557C388.483 632.212 389.203 632.121 389.877 632.305C390.538 632.512 391.096 632.962 391.437 633.564C391.778 634.166 391.877 634.876 391.714 635.549C391.426 637.375 384.71 680.002 384.71 680.002C384.523 680.676 384.076 681.248 383.468 681.593C382.861 681.938 382.141 682.029 381.466 681.845C380.808 681.641 380.252 681.195 379.909 680.597C379.566 680 379.462 679.294 379.619 678.623L379.624 678.601ZM340.851 656.154C342.012 654.971 360.474 636.247 368.564 628.064C370.951 625.65 374.674 629.378 372.292 631.793L344.574 659.877C342.181 662.319 338.458 658.59 340.845 656.176L340.851 656.154Z" fill="#59DFFD"/>
<path d="M481.864 529.253C480.476 533.311 478.744 537.243 476.686 541.006C474.929 544.216 472.155 546.751 468.8 548.213C465.445 549.674 461.699 549.979 458.152 549.079C455.117 547.805 452.562 545.603 450.855 542.789C449.147 539.975 448.374 536.693 448.645 533.412C449.038 528.335 449.696 523.283 450.619 518.275C432.265 526.735 425.249 537.67 413.104 536.874C409.707 536.612 406.519 535.13 404.13 532.7C401.741 530.27 400.312 527.057 400.109 523.655C392.319 525.912 269.992 561.393 267.97 561.954C267.591 562.056 267.187 562.005 266.847 561.811C266.506 561.617 266.255 561.296 266.149 560.918C265.926 559.943 265.708 558.962 265.484 557.986C265.413 558.057 265.348 558.138 265.283 558.215C264.891 558.618 264.609 559.114 264.463 559.657C264.316 560.199 264.31 560.77 264.446 561.315C264.581 561.861 264.853 562.363 265.236 562.774C265.619 563.185 266.1 563.492 266.634 563.666L266.7 563.704C290.881 573.69 365.549 607.187 377.356 612.115C378.664 612.916 380.186 613.297 381.717 613.205C383.391 612.872 393.982 609.793 396.484 609.046C425.462 600.379 464.622 586.435 493.033 576.001C492.455 557.604 491.469 544.505 481.864 529.253Z" fill="#EAEAEA"/>
<path d="M470.253 417.921C470.184 417.675 470.052 417.452 469.872 417.271C469.692 417.091 469.468 416.96 469.223 416.89C458.916 415.747 448.677 414.056 438.55 411.826C433.715 410.578 427.402 408.894 425.467 403.65C422.475 395.582 430.82 389.297 437.623 387.542C445.065 386.39 452.662 386.729 459.972 388.539C460.224 388.601 460.487 388.597 460.737 388.527C460.986 388.457 461.213 388.325 461.397 388.142C461.58 387.959 461.713 387.732 461.784 387.483C461.854 387.234 461.859 386.971 461.798 386.719C460.517 381.077 458.702 375.571 457.519 369.913C457.408 369.538 457.155 369.221 456.815 369.028C456.474 368.835 456.072 368.781 455.693 368.877C440.321 372.562 251.535 415.653 235.334 419.251C234.959 419.363 234.642 419.615 234.449 419.955C234.256 420.296 234.202 420.698 234.299 421.077C236.533 430.175 265.915 559.932 266.138 560.907C266.244 561.285 266.494 561.606 266.835 561.8C267.176 561.994 267.58 562.045 267.959 561.943C269.981 561.398 392.308 525.901 400.098 523.644C399.498 514.268 408.596 503.393 414.767 496.192C411.218 495.523 407.909 493.928 405.175 491.569C402.441 489.209 400.379 486.169 399.199 482.756C398.578 478.884 399.433 474.921 401.594 471.65C403.755 468.379 407.065 466.037 410.869 465.089C413.851 460.395 416.865 455.697 419.591 450.845L391.333 432.083C388.514 430.213 391.158 425.65 393.993 427.531C393.993 427.531 415.464 441.993 424.431 447.738C425.018 448.107 425.442 448.685 425.617 449.356C425.792 450.026 425.705 450.738 425.374 451.347C422.9 455.909 420.141 460.346 417.345 464.74C425.135 465.634 430.945 468.517 442.098 467.258C452.502 465.984 462.615 462.964 472.014 458.324C474.151 457.092 480.158 453.609 481.024 453.096C478.55 445.323 472.368 425.732 470.253 417.921ZM373.698 430.507C367.337 454.803 360.229 478.902 353.028 502.963C352.816 503.605 352.364 504.142 351.768 504.461C351.171 504.78 350.474 504.858 349.822 504.678C349.169 504.498 348.611 504.074 348.262 503.494C347.913 502.914 347.801 502.222 347.948 501.562C354.309 477.266 361.412 453.167 368.613 429.106C368.811 428.446 369.259 427.89 369.863 427.556C370.466 427.222 371.176 427.138 371.84 427.321C372.505 427.504 373.071 427.94 373.419 428.535C373.766 429.131 373.866 429.839 373.698 430.507ZM293.622 480.079C302.962 467.662 312.296 455.242 321.624 442.821C321.986 442.227 322.564 441.795 323.237 441.619C323.91 441.442 324.626 441.533 325.233 441.873C325.835 442.227 326.273 442.806 326.449 443.482C326.626 444.159 326.528 444.877 326.176 445.481L300.115 480.161C311.665 484.434 323.38 488.267 334.898 492.644C335.565 492.841 336.129 493.289 336.472 493.894C336.815 494.499 336.909 495.214 336.735 495.887C336.548 496.559 336.102 497.13 335.495 497.474C334.888 497.818 334.17 497.908 333.497 497.724C320.812 492.905 307.877 488.774 295.198 483.955C293.791 483.415 292.505 481.567 293.622 480.079Z" fill="white"/>
<path d="M479.82 526.184C476.456 520.697 471.07 516.753 464.824 515.2C459.89 514.806 454.948 515.87 450.613 518.258C449.691 523.266 449.032 528.319 448.64 533.396C448.368 536.676 449.142 539.959 450.849 542.773C452.557 545.587 455.111 547.788 458.146 549.062C461.694 549.962 465.439 549.658 468.794 548.196C472.149 546.735 474.923 544.2 476.68 540.989C478.738 537.227 480.471 533.295 481.859 529.237C481.221 528.228 480.545 527.209 479.82 526.184Z" fill="white"/>
<path d="M602.136 61.0072C598.14 46.555 592.208 32.7093 584.502 19.8463C581.164 13.4344 577.312 7.30368 572.984 1.51434C572.253 0.571308 570.803 1.21454 570.504 2.16847C564.681 17.7925 561.735 34.3418 561.809 51.0154C562.376 67.764 567.502 84.0404 576.636 98.0908C582.343 106.376 589.525 113.542 597.824 119.23C597.988 119.344 598.176 119.421 598.373 119.455C598.57 119.49 598.772 119.48 598.965 119.429C599.158 119.377 599.337 119.283 599.491 119.155C599.644 119.026 599.767 118.866 599.852 118.685C608.143 100.413 607.058 79.9333 602.136 61.0072Z" fill="#EAEAEA"/>
<path d="M336.735 495.887C336.909 495.214 336.815 494.499 336.472 493.894C336.129 493.289 335.565 492.841 334.898 492.644C323.38 488.283 311.666 484.434 300.115 480.161L326.176 445.481C326.528 444.877 326.626 444.159 326.45 443.482C326.273 442.806 325.836 442.227 325.233 441.873C324.626 441.533 323.911 441.442 323.238 441.619C322.564 441.795 321.986 442.227 321.625 442.821C312.292 455.239 302.958 467.658 293.623 480.079C292.532 481.567 293.792 483.415 295.198 483.955C307.883 488.774 320.818 492.905 333.497 497.724C334.17 497.908 334.889 497.818 335.495 497.474C336.102 497.13 336.548 496.559 336.735 495.887Z" fill="black"/>
<path d="M424.437 447.738C415.47 441.993 393.998 427.531 393.998 427.531C391.164 425.65 388.547 430.213 391.338 432.083L419.613 450.856C416.887 455.707 413.857 460.406 410.891 465.1C413.016 464.626 415.203 464.505 417.367 464.74C420.163 460.346 422.922 455.909 425.396 451.347C425.726 450.736 425.81 450.023 425.632 449.352C425.454 448.682 425.026 448.104 424.437 447.738Z" fill="black"/>
<path d="M368.613 429.106C361.406 453.167 354.309 477.266 347.948 501.562C347.801 502.222 347.913 502.914 348.262 503.494C348.611 504.074 349.169 504.498 349.822 504.678C350.474 504.858 351.171 504.78 351.768 504.461C352.365 504.142 352.816 503.605 353.028 502.963C360.229 478.902 367.343 454.808 373.699 430.507C373.866 429.839 373.766 429.131 373.419 428.536C373.071 427.94 372.505 427.504 371.84 427.321C371.176 427.138 370.466 427.222 369.863 427.556C369.26 427.89 368.811 428.446 368.613 429.106Z" fill="black"/>
<path d="M973.021 550.093C927.717 589.133 890.35 667.71 877.567 726.581C877.306 597.757 876.477 545.743 867.684 458.477C906.867 459.676 944.942 444.217 966.082 409.63C966.195 409.465 966.271 409.278 966.305 409.081C966.338 408.885 966.329 408.683 966.277 408.49C966.225 408.297 966.132 408.118 966.004 407.965C965.876 407.811 965.717 407.688 965.536 407.602C956.514 403.368 946.726 401.012 936.765 400.678C926.805 400.343 916.88 402.038 907.595 405.657C898.309 409.277 889.856 414.747 882.75 421.734C875.644 428.722 870.032 437.081 866.256 446.304C861.906 410.116 855.362 374.226 846.66 338.831C834.498 297.812 812.521 260.375 782.632 229.761C749.304 195.419 713.469 172.803 668.432 152.672C662.774 150.007 656.985 147.221 651.316 144.599C683.864 125.237 701.465 70.0942 677.415 25.2211C677.299 25.028 677.14 24.8638 676.951 24.7406C676.762 24.6174 676.548 24.5384 676.324 24.5096C676.1 24.4808 675.873 24.5029 675.659 24.5741C675.445 24.6454 675.249 24.7641 675.088 24.9213C647.396 51.6642 627.881 81.7649 634.352 119.868C635.932 129.013 639.438 137.719 644.638 145.406C625.837 142.762 606.737 143.095 588.04 146.393C572.78 149.11 558.352 155.305 545.874 164.498C533.396 173.691 523.203 185.636 516.086 199.404C515.988 199.604 515.934 199.822 515.927 200.044C515.92 200.266 515.959 200.487 516.043 200.693C516.127 200.899 516.253 201.084 516.414 201.238C516.574 201.392 516.765 201.51 516.974 201.585C556.849 218.085 601.177 211.822 632.678 177.714C640.276 169.671 646.464 160.406 650.983 150.307C694.886 170.786 726.208 184.648 764.496 219.535C798.45 249.657 824.026 288.058 838.734 330.998C843.339 345.612 846.994 360.508 849.674 375.593C874.629 504.276 871.805 621.823 872.427 771.073C872.458 771.751 872.749 772.392 873.24 772.861C873.731 773.33 874.384 773.591 875.062 773.591C875.741 773.591 876.394 773.33 876.885 772.861C877.376 772.392 877.667 771.751 877.698 771.073C876.722 706.849 925.03 597.015 976.766 553.794C979.355 551.646 975.61 547.934 973.021 550.093Z" fill="#EAEAEA"/>
<path d="M734.526 696.862C743.988 686.584 752.079 675.123 758.598 662.766C760.173 659.768 755.621 657.097 754.046 660.106C748.079 671.444 740.732 681.999 732.171 691.531C734.351 695.892 734.586 695.069 732.253 697.587C732.661 697.697 733.093 697.687 733.496 697.558C733.899 697.43 734.256 697.188 734.526 696.862Z" fill="white"/>
<path d="M668.388 555.527C668.572 554.853 668.482 554.133 668.136 553.525C667.791 552.917 667.219 552.471 666.546 552.284C665.872 552.112 665.159 552.207 664.555 552.551C663.951 552.895 663.504 553.46 663.308 554.126C659.067 565.028 654.003 576.525 643.455 582.603C643.11 582.797 642.819 583.073 642.606 583.407C642.393 583.741 642.265 584.121 642.234 584.516C642.73 584.276 643.237 584.053 643.722 583.775C643.949 583.642 644.206 583.572 644.469 583.572C644.731 583.572 644.989 583.642 645.216 583.775C646.159 584.451 647.091 585.143 648.029 585.824C658.435 578.667 663.886 567.067 668.388 555.527Z" fill="white"/>
<path d="M733.714 694.497C723.792 673.856 712.187 654.067 699.018 635.331C684.098 615.253 665.911 597.825 645.216 583.775C644.989 583.642 644.732 583.572 644.469 583.572C644.207 583.572 643.949 583.642 643.722 583.775C628.835 592.333 608.143 585.11 602.779 552.017C597.007 516.416 596.647 479.082 570.564 453.255C562.159 444.701 551.113 439.235 539.215 437.741C520.447 435.669 502.534 444.053 485.08 452.301C485.47 452.53 485.795 452.856 486.022 453.248C486.249 453.639 486.372 454.082 486.378 454.535C486.384 454.988 486.273 455.434 486.056 455.831C485.84 456.229 485.524 456.563 485.14 456.803C448.007 478.21 434.363 483.9 419.493 496.988C419.107 497.336 418.629 497.564 418.117 497.646C417.604 497.727 417.079 497.659 416.605 497.449C416.13 497.238 415.727 496.895 415.443 496.46C415.16 496.025 415.008 495.518 415.007 494.999C415.029 494.411 415.257 493.85 415.65 493.412C427.233 482.003 446.721 472.922 472.019 458.324C462.621 462.964 452.507 465.984 442.104 467.258C430.657 468.55 425.238 465.623 417.351 464.74C414.888 464.341 412.366 464.531 409.991 465.295C407.616 466.058 405.455 467.372 403.685 469.13C401.915 470.888 400.586 473.04 399.808 475.41C399.029 477.781 398.822 480.301 399.204 482.767C400.385 486.179 402.447 489.219 405.181 491.579C407.915 493.938 411.224 495.534 414.772 496.203C409.43 502.439 401.194 512.557 400.202 520.542C399.895 522.475 399.991 524.449 400.485 526.343C400.979 528.236 401.859 530.006 403.071 531.542C404.282 533.078 405.799 534.347 407.525 535.268C409.25 536.19 411.148 536.744 413.099 536.896C425.353 537.697 432.723 526.386 450.613 518.297C454.947 515.903 459.889 514.839 464.824 515.239C471.07 516.791 476.456 520.736 479.82 526.222C499.531 553.538 488.427 577.631 497.476 625.279C503.735 658.018 519.958 688.023 543.924 711.188C568.618 733.799 599.623 742.64 632.689 743.087C654.652 743.382 678.615 739.991 697.012 728.331C709.937 719.526 721.767 709.212 732.253 697.609C733.229 696.535 734.379 695.767 733.714 694.497ZM576.483 694.96C569.185 693.092 562.058 690.607 555.181 687.53C554.578 687.176 554.139 686.598 553.961 685.922C553.784 685.245 553.881 684.526 554.232 683.922C554.601 683.335 555.18 682.911 555.85 682.736C556.52 682.561 557.232 682.648 557.841 682.978C564.329 685.805 571.031 688.111 577.884 689.874C578.545 690.072 579.101 690.521 579.435 691.124C579.768 691.727 579.853 692.437 579.67 693.102C579.487 693.766 579.051 694.333 578.455 694.68C577.86 695.027 577.152 695.128 576.483 694.96Z" fill="white"/>
<path d="M577.884 689.874C571.031 688.111 564.329 685.805 557.841 682.978C557.232 682.648 556.52 682.561 555.85 682.736C555.18 682.911 554.601 683.335 554.232 683.922C553.881 684.526 553.783 685.245 553.961 685.922C554.139 686.598 554.577 687.176 555.181 687.53C562.058 690.607 569.184 693.092 576.483 694.96C577.152 695.128 577.86 695.027 578.455 694.68C579.051 694.333 579.486 693.766 579.67 693.102C579.853 692.437 579.768 691.727 579.435 691.124C579.101 690.521 578.545 690.072 577.884 689.874Z" fill="#59DFFD"/>
<path d="M455.497 467.662C445.876 472.674 436.514 478.169 427.446 484.124C423.334 486.976 419.395 490.07 415.65 493.391C415.331 493.749 415.121 494.191 415.043 494.664C414.965 495.137 415.022 495.623 415.209 496.065C415.395 496.507 415.703 496.887 416.096 497.162C416.49 497.436 416.953 497.593 417.432 497.615C417.802 497.658 418.177 497.623 418.532 497.511C418.887 497.399 419.214 497.214 419.493 496.967C433.077 485.012 446.825 478.596 463.974 469.019C471.093 465.045 478.081 460.842 485.14 456.781C488.078 455.091 485.265 450.496 482.48 452.235C482.006 452.551 461.03 464.587 455.497 467.662Z" fill="#59DFFD"/>
<path d="M283.135 335.484C280.06 324.62 272.282 300.052 271.824 298.515C271.717 298.137 271.465 297.816 271.123 297.622C270.782 297.429 270.377 297.377 269.998 297.48C259.139 300.554 234.566 308.322 233.029 308.791C232.651 308.896 232.33 309.147 232.136 309.488C231.942 309.829 231.891 310.232 231.993 310.611C235.531 321.333 242.851 346.043 243.309 347.58C243.415 347.958 243.666 348.279 244.007 348.473C244.347 348.667 244.751 348.718 245.13 348.616C255.988 345.542 280.562 337.763 282.099 337.305C282.476 337.198 282.796 336.947 282.99 336.607C283.183 336.266 283.235 335.863 283.135 335.484Z" fill="#59DFFD"/>
<path d="M346.601 318.592C343.581 315.643 318.676 292.388 317.934 292.023C317.748 291.907 317.538 291.834 317.32 291.809C317.102 291.783 316.881 291.806 316.672 291.876C316.464 291.946 316.274 292.061 316.115 292.212C315.956 292.364 315.833 292.549 315.754 292.754C315.072 293.806 308.744 311.287 303.14 327.597C302.748 328.742 303.936 329.63 304.961 329.417L345.969 321.066C346.215 320.992 346.437 320.855 346.614 320.67C346.792 320.484 346.918 320.256 346.982 320.007C347.046 319.758 347.044 319.497 346.977 319.249C346.911 319.001 346.781 318.775 346.601 318.592Z" fill="#EAEAEA"/>
<path d="M385.364 291.02C383.749 287.267 381.002 284.111 377.508 281.994C374.013 279.876 369.945 278.902 365.871 279.208C362.313 279.412 358.917 280.763 356.191 283.058C353.465 285.354 351.556 288.47 350.749 291.941C347.293 307.711 366.814 319.54 379.684 310.028C382.523 307.871 384.604 304.867 385.625 301.451C386.646 298.034 386.555 294.381 385.364 291.02Z" fill="#59DFFD"/>
<path d="M208.433 280.554C205.51 278.257 202.12 276.626 198.501 275.773C194.883 274.92 191.121 274.866 187.48 275.615C180.938 277.583 174.081 284.337 177.804 291.5C179.583 294.189 181.918 296.464 184.651 298.173C187.385 299.882 190.454 300.984 193.65 301.404C200.257 302.664 208.668 302.882 213.159 296.934C217.651 290.987 213.508 284.446 208.433 280.554Z" fill="#59DFFD"/>
<path d="M144.22 266.659C143.784 266.016 145.719 266.943 107.654 252.487C106.101 251.892 105.419 253.948 106.215 254.961L123.98 277.725C124.213 277.955 124.515 278.103 124.84 278.145C125.165 278.188 125.495 278.122 125.779 277.959L143.451 269.031C143.698 268.978 143.927 268.861 144.115 268.692C144.302 268.523 144.442 268.307 144.52 268.067C144.598 267.827 144.611 267.57 144.558 267.323C144.506 267.076 144.389 266.847 144.22 266.659Z" fill="#EAEAEA"/>
<path d="M189.278 242.102L171.383 227.93C171.227 227.688 170.989 227.512 170.713 227.434C170.437 227.355 170.142 227.38 169.884 227.504L144.264 237.474C143.348 237.834 142.628 239.181 143.609 239.955L161.843 254.623C162.029 254.807 162.259 254.939 162.512 255.006C162.764 255.073 163.03 255.073 163.282 255.005L188.602 244.583C189.524 244.212 190.26 242.882 189.278 242.102Z" fill="#59DFFD"/>
<path d="M1035.65 593.984C1025.6 590.869 1015.06 589.687 1004.58 590.501C994.137 590.685 983.741 591.895 973.538 594.115C955.393 597.901 939.335 608.371 928.551 623.447C922.322 632.176 917.129 641.599 913.075 651.526C912.694 652.463 913.62 653.363 914.504 653.401C934.787 654.279 960.292 652.921 979.006 645.273C994.322 638.037 1008.28 628.216 1020.26 616.241C1026.56 610.314 1032.03 603.558 1036.52 596.159C1036.95 595.462 1036.74 594.535 1035.65 593.984Z" fill="#EAEAEA"/>
<path d="M920.865 542.575C920.693 542.322 920.445 542.131 920.156 542.03C920.014 541.927 919.851 541.856 919.679 541.822C919.506 541.789 919.329 541.794 919.158 541.837C918.988 541.881 918.83 541.961 918.694 542.072C918.558 542.184 918.449 542.324 918.374 542.483L918.303 542.581C918.196 542.746 918.123 542.932 918.09 543.126C912.123 558.546 910.83 575.381 914.373 591.531C915.895 597.523 918.561 603.165 922.222 608.146C922.358 608.364 922.547 608.543 922.771 608.667C922.995 608.792 923.247 608.857 923.503 608.857C923.759 608.857 924.011 608.792 924.236 608.667C924.46 608.543 924.648 608.364 924.784 608.146C936.738 589.215 932.683 560.188 920.865 542.575Z" fill="#EAEAEA"/>
<path d="M501.384 296.28V247.826C501.353 247.148 501.062 246.507 500.571 246.038C500.08 245.569 499.428 245.307 498.749 245.307C498.07 245.307 497.417 245.569 496.926 246.038C496.435 246.507 496.144 247.148 496.113 247.826V296.28C496.144 296.959 496.435 297.599 496.926 298.068C497.417 298.537 498.07 298.799 498.749 298.799C499.428 298.799 500.08 298.537 500.571 298.068C501.062 297.599 501.353 296.959 501.384 296.28Z" fill="black"/>
<path d="M515.851 303.596C516.458 303.934 517.172 304.024 517.844 303.847C518.516 303.67 519.093 303.24 519.454 302.647L555.628 255.267C555.979 254.663 556.078 253.944 555.901 253.268C555.724 252.591 555.287 252.013 554.684 251.658C554.077 251.319 553.362 251.229 552.689 251.406C552.017 251.583 551.438 252.013 551.076 252.607L514.908 299.965C514.73 300.265 514.613 300.597 514.564 300.943C514.515 301.288 514.534 301.64 514.622 301.977C514.71 302.315 514.864 302.632 515.075 302.91C515.285 303.187 515.549 303.421 515.851 303.596Z" fill="black"/>
<path d="M575.851 299.044L533.938 316.891C533.335 317.244 532.897 317.821 532.719 318.496C532.541 319.172 532.638 319.89 532.989 320.494C533.357 321.081 533.935 321.506 534.606 321.683C535.276 321.859 535.989 321.773 536.598 321.442L578.511 303.596C578.811 303.422 579.073 303.19 579.283 302.914C579.493 302.638 579.647 302.324 579.735 301.988C579.823 301.653 579.844 301.304 579.797 300.96C579.75 300.617 579.635 300.286 579.46 299.987C579.097 299.393 578.518 298.964 577.845 298.788C577.172 298.612 576.458 298.704 575.851 299.044Z" fill="black"/>
<path d="M372.287 631.815C374.669 629.4 370.946 625.672 368.558 628.086C360.485 636.263 342.006 654.993 340.845 656.176C338.457 658.591 342.181 662.319 344.568 659.899C350.052 654.35 362.17 642.063 372.287 631.815Z" fill="black"/>
<path d="M389.872 632.327C389.198 632.143 388.478 632.234 387.87 632.579C387.262 632.924 386.816 633.496 386.629 634.17L379.618 678.623C379.456 679.297 379.556 680.007 379.898 680.609C380.24 681.212 380.799 681.661 381.461 681.866C382.135 682.05 382.855 681.96 383.463 681.615C384.071 681.269 384.517 680.697 384.704 680.024C384.704 680.024 391.42 637.397 391.709 635.571C391.872 634.898 391.773 634.188 391.432 633.586C391.09 632.983 390.533 632.533 389.872 632.327Z" fill="black"/>
<path d="M414.282 634.17C414.083 633.503 413.635 632.939 413.031 632.596C412.426 632.253 411.712 632.156 411.038 632.327C410.365 632.514 409.793 632.961 409.449 633.569C409.105 634.177 409.015 634.897 409.201 635.571C413.666 647.018 423.837 673.09 424.464 674.687C424.669 675.348 425.118 675.906 425.719 676.248C426.321 676.59 427.029 676.691 427.702 676.53C428.377 676.344 428.949 675.898 429.295 675.29C429.64 674.681 429.73 673.961 429.545 673.286C407.833 617.637 416.598 640.111 414.282 634.17Z" fill="black"/>
<path d="M62.0888 513.827C67.0149 496.289 76.4605 480.353 89.4804 467.613C91.9334 465.258 88.1994 461.535 85.7519 463.884C71.8362 477.06 61.8806 493.864 57.0084 512.398C56.8614 513.059 56.9739 513.751 57.3227 514.331C57.6715 514.911 58.2299 515.335 58.8824 515.515C59.5349 515.695 60.2316 515.617 60.8284 515.298C61.4252 514.979 61.8764 514.442 62.0888 513.799V513.827Z" fill="black"/>
<path d="M79.1233 453.952C81.6635 451.695 77.9186 447.956 75.3948 450.229C58.7341 465.115 45.6194 483.544 37.0139 504.162C36.9212 504.495 36.8953 504.843 36.9375 505.187C36.9797 505.53 37.0893 505.862 37.26 506.162C37.4307 506.463 37.6591 506.727 37.9321 506.94C38.2051 507.152 38.5173 507.308 38.8509 507.4C39.528 507.581 40.2488 507.49 40.8598 507.146C41.4707 506.803 41.9235 506.235 42.1215 505.563C50.4729 485.827 63.1124 468.197 79.1233 453.952Z" fill="black"/>
<path d="M230.908 281.546C231.263 282.149 231.842 282.586 232.518 282.763C233.194 282.939 233.913 282.841 234.517 282.489C235.111 282.129 235.542 281.551 235.718 280.879C235.894 280.206 235.801 279.492 235.46 278.886L222.622 251.276C222.263 250.679 221.683 250.247 221.007 250.076C220.331 249.904 219.615 250.007 219.014 250.361C218.42 250.721 217.989 251.299 217.813 251.971C217.637 252.644 217.729 253.358 218.071 253.964L230.908 281.546Z" fill="#59DFFD"/>
<path d="M242.203 276.733C242.402 277.404 242.855 277.972 243.465 278.315C244.076 278.657 244.796 278.749 245.473 278.57C246.146 278.384 246.718 277.938 247.062 277.331C247.407 276.724 247.496 276.005 247.31 275.332L235.961 246.496C235.756 245.834 235.307 245.275 234.704 244.933C234.102 244.591 233.391 244.491 232.718 244.653C232.043 244.839 231.471 245.285 231.125 245.894C230.78 246.502 230.69 247.222 230.875 247.897L242.203 276.733Z" fill="#59DFFD"/>
<path d="M195.972 240.102C196.177 240.764 196.627 241.322 197.229 241.665C197.832 242.007 198.542 242.107 199.216 241.944C199.889 241.757 200.461 241.31 200.805 240.702C201.149 240.094 201.238 239.374 201.053 238.701C197.393 229.547 193.734 220.396 190.074 211.249C189.869 210.587 189.42 210.029 188.817 209.686C188.215 209.344 187.504 209.244 186.831 209.407C186.156 209.593 185.584 210.039 185.238 210.647C184.893 211.255 184.803 211.976 184.988 212.65C188.651 221.801 192.313 230.951 195.972 240.102Z" fill="#59DFFD"/>
<path d="M400.518 306.577C400.833 295.951 400.41 285.316 399.253 274.749C399.23 274.057 398.944 273.4 398.455 272.911C397.965 272.422 397.307 272.138 396.615 272.116C395.917 272.116 395.247 272.393 394.753 272.887C394.259 273.381 393.982 274.05 393.982 274.749C395.117 285.318 395.54 295.951 395.247 306.577C395.278 307.256 395.569 307.896 396.06 308.365C396.55 308.834 397.203 309.096 397.882 309.096C398.561 309.096 399.214 308.834 399.705 308.365C400.196 307.896 400.487 307.256 400.518 306.577Z" fill="#59DFFD"/>
<path d="M148.341 313.702C179.957 320.516 200.568 329.45 214.195 359.295C220.974 375.003 225.991 391.415 229.153 408.229C229.889 411.538 234.969 410.137 234.233 406.828C233.606 403.999 231.742 395.926 231.459 394.754C217.117 335.103 196.25 320.221 158.267 310.633C102.536 296.564 31.9609 296.722 21.3095 237.867C20.7099 234.536 15.6404 235.943 16.2291 239.268C26.4989 297.529 94.3537 302.075 148.341 313.702Z" fill="white"/>
<path d="M439.144 355.773C439.782 359.098 444.857 357.692 444.23 354.367C435.917 310.606 426.737 268.098 391.6 240.44C359.373 215.092 314.489 222.337 279.63 206.065C262.074 197.924 248.385 183.258 241.472 165.182C240.627 162.953 239.962 160.669 239.292 158.385C239.079 157.742 238.628 157.206 238.031 156.887C237.435 156.567 236.738 156.49 236.085 156.669C235.433 156.849 234.875 157.273 234.526 157.853C234.177 158.433 234.064 159.125 234.211 159.786C239.223 178.783 251.247 195.175 267.861 205.662C316.201 236.597 380.36 206.398 418.196 282.249C429.599 305.084 434.347 330.633 439.144 355.773Z" fill="white"/>
<path d="M725.837 373.446C730.029 373.285 734.13 372.18 737.835 370.213C741.54 368.246 744.754 365.468 747.235 362.086C749.716 358.704 751.402 354.805 752.166 350.68C752.93 346.555 752.753 342.311 751.647 338.264C748.077 322.963 733.277 312.503 715.512 321.911C688.693 336.193 700.544 373.446 725.837 373.446ZM708.121 336.062C715.899 322.576 734.324 319.447 742.332 330.126C731.01 332.317 719.519 334.307 708.121 336.062ZM705.777 341.988C718.014 340.189 730.923 337.948 745.183 335.136C746.776 338.764 747.483 342.719 747.245 346.674C747.007 350.63 745.831 354.472 743.814 357.883C742.231 360.787 739.949 363.251 737.175 365.053C734.402 366.854 731.223 367.937 727.926 368.202C724.629 368.468 721.318 367.908 718.291 366.574C715.264 365.24 712.618 363.173 710.59 360.559C708.445 358.024 706.898 355.037 706.065 351.822C705.232 348.607 705.133 345.246 705.777 341.988Z" fill="black"/>
<path d="M184.067 769.663C157.912 749.187 125.641 738.081 92.4244 738.124C59.2075 738.166 26.9657 749.355 0.862605 769.897C0.477667 770.239 0.204392 770.689 0.0782556 771.188C-0.0478806 771.687 -0.0210525 772.213 0.155262 772.696C0.331575 773.18 0.649231 773.599 1.06698 773.9C1.48474 774.201 1.98329 774.369 2.49792 774.383H182.694C183.238 774.364 183.762 774.173 184.191 773.838C184.621 773.504 184.934 773.042 185.086 772.519C185.238 771.997 185.221 771.439 185.038 770.926C184.856 770.414 184.516 769.971 184.067 769.663ZM174.43 769.238H10.4347C34.4564 752.384 63.0879 743.342 92.4322 743.342C121.776 743.342 150.408 752.384 174.43 769.238Z" fill="black"/>
<path d="M767.08 403.824C720.964 382.184 672.231 410.191 641.029 451.603C635.273 459.234 630.127 467.286 625.14 475.435C616.86 441.824 600.165 410.872 576.625 385.493C539.307 346.507 481.504 332.732 442.627 346C439.319 325.843 433.836 306.104 426.274 287.128C419.011 268.804 407.061 252.71 391.622 240.456C359.4 215.109 314.516 222.353 279.657 206.082C262.102 197.939 248.413 183.273 241.499 165.199C240.66 162.969 239.99 160.685 239.319 158.401C239.107 157.759 238.655 157.222 238.059 156.903C237.462 156.584 236.765 156.506 236.113 156.686C235.46 156.866 234.902 157.29 234.553 157.87C234.204 158.45 234.092 159.142 234.239 159.802C239.249 178.79 251.264 195.175 267.866 205.662C316.201 236.597 380.36 206.398 418.196 282.255C427.633 303.147 434.183 325.227 437.667 347.886C430.545 350.579 424.031 354.662 418.504 359.899C412.977 365.135 408.547 371.419 405.473 378.384C394.173 380.974 365.408 387.624 358.594 389.194C358.537 388.982 358.417 388.792 358.25 388.649C321.772 356.776 263.162 357.033 231.148 393.484C216.899 335.005 196.043 320.167 158.267 310.633C101.369 296.27 31.9008 296.417 21.3094 237.867C20.7098 234.536 15.6458 235.943 16.2291 239.268C29.2298 313.048 134.839 300.87 182.666 324.67C209.671 338.112 219.968 369.036 226.94 398.586C217.61 410.689 210.816 424.549 206.967 439.338C180.186 439.104 152.914 452.017 130.134 475.86C96.9302 510.743 76.6368 555.92 72.6148 603.911C70.0365 634.911 73.3616 676.018 103.877 695.843C114.691 702.66 126.547 707.663 138.976 710.654C160.072 715.271 181.674 707.437 198.262 689.165C214.353 671.444 221.434 648.724 226.138 626.206C234.451 679.299 283.309 737.506 338.883 737.506C355.201 737.536 371.067 732.142 383.985 722.172C384.09 722.089 384.179 721.987 384.246 721.872C389.3 724.93 394.445 727.841 399.564 730.774C438.686 753.188 460.158 760.536 484.66 765.829C539.688 777.734 596.7 776.988 651.397 763.649C721.171 745.202 796.395 670.436 819.175 568.583C826.354 536.476 829.102 501.785 819.938 469.788C812.002 442.02 793.675 416.302 767.08 403.824ZM550.994 370.671C581.836 391.832 603.417 425.541 615.208 460.881C608.367 471.532 601.406 482.14 593.834 492.268C582.567 452.628 552.406 426.757 512.984 439.567C506.556 429.924 496.919 422.871 485.783 419.66C476.557 416.743 467.081 414.687 457.476 413.516C451.115 412.682 432.401 410.055 428.329 405.062C427.243 403.585 426.688 401.784 426.753 399.952C426.818 398.119 427.5 396.363 428.689 394.966C431.113 392.093 434.419 390.102 438.092 389.303C445.227 388.288 452.489 388.627 459.498 390.3C460.058 390.437 460.643 390.427 461.198 390.271C461.752 390.116 462.258 389.82 462.665 389.412C463.072 389.005 463.367 388.499 463.522 387.944C463.676 387.39 463.686 386.804 463.548 386.245C462.267 380.608 460.452 375.103 459.269 369.445C459.022 368.612 458.462 367.908 457.707 367.478C456.953 367.049 456.061 366.927 455.219 367.139C440.861 370.584 426.405 373.576 412.014 376.874C436.669 333.01 508.302 341.393 550.994 370.671ZM472.008 513.478C458.926 506.288 443.756 515.658 431.425 523.966C423.598 529.253 418.234 533.151 411.049 531.684C409.063 530.927 407.381 529.538 406.262 527.73C405.143 525.923 404.649 523.797 404.857 521.682C405.833 516.654 408.085 511.961 411.398 508.054C418.408 498.384 440.779 483.557 458.501 472.731C485.336 456.334 487.391 455.255 502.076 449.09C522.502 440.515 541.771 437.485 559.945 449.864C564.776 453.207 569.097 457.234 572.771 461.818C601.94 497.686 590.062 551.167 607.413 576.836C616.134 589.76 630.672 595.336 644.207 588.136C679.094 613.385 699.377 635.56 729.211 694.786C724.768 699.572 720.108 704.14 715.295 708.555C700.669 721.959 689.549 730.081 669.969 735.091C662.231 737.001 654.34 738.229 646.388 738.759C615.137 740.836 582.158 734.546 556.598 716.17C541.129 704.593 528.388 689.763 519.275 672.725C486.023 613.205 505.685 564.118 488.749 531.406C485.094 523.886 479.261 517.639 472.008 513.478ZM355.596 701.752C363.204 708.055 371.238 713.825 379.64 719.021C359.101 734.911 327.855 736.704 301.69 723.447C262.393 703.545 230.08 654.181 230.129 611.014C230.129 609.149 230.129 607.285 230.041 605.421C229.894 602.559 225.501 601.872 224.966 604.876C219.308 636.841 212.26 676.623 180.715 697.468C173.766 702.298 165.753 705.377 157.357 706.441C148.962 707.505 140.434 706.523 132.5 703.578C123.56 700.708 115.014 696.732 107.06 691.744C88.5264 679.893 78.8181 658.765 77.3954 627.138C76.5463 600.231 81.0114 573.42 90.5352 548.24C100.059 523.06 114.455 500.006 132.898 480.395C171.306 438.935 214.01 439.316 238.905 452.246C239.134 452.367 239.399 452.401 239.652 452.344C255.885 523.137 264.143 560.88 264.448 561.502C264.912 562.701 264.857 562.908 268.684 564.571C273.361 566.598 283.849 570.801 308.188 581.643C305.641 604.016 308.632 626.671 316.899 647.615C325.166 668.56 338.455 687.151 355.596 701.752ZM234.855 417.517C234.023 417.765 233.319 418.325 232.891 419.08C232.464 419.835 232.345 420.727 232.56 421.568C234.56 429.744 236.375 437.921 238.229 446.146C230.022 442.44 221.225 440.213 212.244 439.567C222.225 403.045 247.419 377.79 279.837 371.876C292.595 369.63 305.686 370.137 318.232 373.364C330.778 376.59 342.489 382.462 352.581 390.584C327.615 396.373 250.81 413.974 234.855 417.517ZM277.373 561.115L398.654 526.004C399.382 529.679 401.396 532.973 404.334 535.297C407.272 537.62 410.942 538.821 414.685 538.684C425.963 538.188 432.734 529.471 448.302 521.409C447.757 524.909 447.293 528.43 446.934 531.952C446.428 536.551 447.555 541.181 450.117 545.034C456.767 554.906 471.131 552.666 477.329 543.399C479.372 540.298 481.02 536.954 482.235 533.445C483.423 535.56 484.513 537.721 485.505 539.926C489.184 549.431 491.01 559.552 490.885 569.744C462.033 580.33 412.821 598.138 380.97 606.538C346.056 592.088 312.189 575.925 277.373 561.115ZM453.475 532.355C453.878 527.416 454.712 522.499 455.541 517.637C458.393 516.562 461.45 516.144 464.486 516.416C470.056 517.708 474.911 521.102 478.037 525.89C476.624 529.859 474.986 533.745 473.131 537.528C469.643 544.838 460.278 547.694 455.77 541.714C454.783 540.386 454.072 538.873 453.678 537.266C453.284 535.659 453.215 533.989 453.475 532.355ZM417.498 491.815C414.34 491.616 411.321 490.447 408.852 488.469C406.383 486.491 404.584 483.799 403.701 480.761C403.651 478.637 404.197 476.541 405.276 474.711C406.354 472.88 407.924 471.389 409.806 470.404C412.864 469.107 416.27 468.882 419.471 469.766C423.467 470.82 427.536 471.578 431.643 472.034C437.623 472.634 443.661 472.253 449.517 470.905C450.128 470.905 446.841 472.23 437.863 477.479C430.647 481.617 423.838 486.426 417.525 491.843L417.498 491.815ZM473.191 421.731C486.828 423.444 499.235 430.478 507.707 441.3C499.172 444.502 490.803 448.131 482.633 452.175C479.395 442.069 476.108 431.946 473.219 421.731H473.191ZM453.617 374.242C454.352 377.201 455.197 380.134 455.977 383.078C450.393 381.843 444.633 381.616 438.97 382.407C420.245 385.258 415.492 402.8 424.628 410.72C432.674 417.697 455.279 419.78 466.192 421.219C469.267 432.355 472.87 443.361 476.391 454.361C461.308 461.339 444.59 468.196 427.757 464.882C424.622 464.266 421.493 463.372 418.31 462.93C420.812 459.164 423.216 455.299 425.353 451.347C425.684 450.738 425.77 450.026 425.595 449.356C425.42 448.686 424.996 448.107 424.41 447.738C415.443 441.998 393.971 427.531 393.971 427.531C391.137 425.65 388.52 430.218 391.311 432.083L419.553 450.834C417.22 454.977 414.68 459.011 411.998 462.936C409.437 463.313 406.995 464.264 404.854 465.718C402.713 467.172 400.928 469.092 399.634 471.333C398.339 473.574 397.569 476.079 397.379 478.661C397.189 481.242 397.586 483.833 398.539 486.239C401.329 491.412 405.983 495.329 411.556 497.196C405.637 503.411 401.225 510.902 398.659 519.093L269.976 556.34C268.439 549.537 241.767 432.268 239.657 423.176C292.614 411.429 384.448 389.663 453.644 374.242H453.617ZM817.464 549.188C801.274 653.205 728.11 731.635 664.992 753.788C605.766 774.584 523.265 772.796 466.465 755.658C452.577 751.402 439.107 745.89 426.22 739.19C410.411 731.057 394.772 722.292 379.727 712.839C365.91 704.408 353.474 693.899 342.856 681.681C331.719 668.138 323.371 652.525 318.293 635.741C313.216 618.958 311.51 601.335 313.274 583.889C328.335 590.621 371.447 609.651 377.967 612.371C378.699 612.841 379.533 613.131 380.399 613.216C381.265 613.301 382.139 613.18 382.949 612.862C412.592 605.034 463.161 586.909 491.828 576.405C493.022 610.043 495.306 636.47 510.362 667.056C518.334 683.856 529.379 699.017 542.927 711.755C569.25 735.739 603.908 745.382 639.65 744.292C659.432 744.455 678.929 739.578 696.303 730.119C722.171 713.003 743.538 689.91 758.598 662.793C760.173 659.795 755.621 657.124 754.046 660.133C748.281 671.093 741.215 681.317 733 690.583C708.808 643.028 689.969 615.069 649.021 585.165C658.157 577.334 664.874 567.063 668.388 555.555C668.574 554.88 668.484 554.16 668.138 553.552C667.793 552.943 667.22 552.497 666.546 552.311C665.873 552.137 665.159 552.232 664.555 552.575C663.951 552.917 663.504 553.482 663.308 554.148C660.222 564.254 654.467 573.34 646.649 580.45C644.038 582.624 640.978 584.193 637.688 585.046C634.399 585.898 630.961 586.013 627.622 585.381C624.284 584.749 621.126 583.386 618.375 581.391C615.625 579.395 613.35 576.816 611.714 573.837C600.991 557.555 602.861 530.458 595.644 499.251C603.406 489.128 610.498 478.537 617.41 467.825C618.947 472.769 620.277 477.779 621.662 482.772C621.813 483.261 622.101 483.697 622.492 484.027C622.884 484.357 623.362 484.568 623.87 484.634C624.378 484.7 624.894 484.619 625.356 484.4C625.819 484.181 626.209 483.833 626.48 483.399C635.929 466.704 647.327 451.191 660.435 437.185C683.39 414.203 714.259 397.392 746.273 402.729C773.861 407.335 795.943 428.174 807.919 452.802C822.331 482.418 822.462 517.256 817.491 549.188H817.464Z" fill="black"/>
<path d="M575.731 98.6905C581.515 107.084 588.791 114.343 597.197 120.108C597.491 120.316 597.827 120.458 598.182 120.523C598.536 120.587 598.901 120.573 599.249 120.481C599.598 120.389 599.922 120.221 600.198 119.99C600.475 119.759 600.697 119.47 600.85 119.143C608.241 102.833 609.026 83.1659 603.188 60.7239C599.171 46.1883 593.208 32.262 585.461 19.3231C582.107 12.8524 578.222 6.67141 573.845 0.844005C573.54 0.50705 573.151 0.257155 572.717 0.11987C572.284 -0.0174157 571.822 -0.0371664 571.378 0.0626234C570.935 0.162413 570.526 0.378165 570.193 0.687841C569.86 0.997517 569.616 1.39001 569.484 1.8252C563.623 17.574 560.668 34.2554 560.762 51.0591C561.333 68.0012 566.507 84.4679 575.731 98.6905ZM566.786 32.6073C568.146 24.327 570.151 16.1656 572.782 8.19748C575.001 11.5117 577.203 15.1312 579.465 19.1977C591.272 40.386 600.43 58.7342 602.027 85.7006C602.596 95.3411 601.037 104.989 597.459 113.959C585.459 104.447 576.268 91.855 570.866 77.5273C565.464 63.1996 564.054 47.6739 566.786 32.6073Z" fill="black"/>
<path d="M230.946 310.911C234.108 322.075 241.848 346.468 242.263 347.891C242.453 348.541 242.891 349.092 243.482 349.424C244.072 349.756 244.77 349.844 245.424 349.668C254.691 347.046 273.421 341.137 282.421 338.346C282.747 338.252 283.052 338.095 283.317 337.882C283.582 337.67 283.802 337.407 283.965 337.109C284.128 336.811 284.23 336.483 284.265 336.146C284.3 335.808 284.268 335.466 284.171 335.141C281.216 326.174 275.547 307.199 272.87 298.199C272.677 297.546 272.234 296.994 271.637 296.664C271.041 296.333 270.339 296.251 269.682 296.433C269.682 296.433 234.25 307.286 232.718 307.744C232.067 307.936 231.518 308.374 231.186 308.966C230.855 309.558 230.769 310.256 230.946 310.911ZM236.637 311.925L268.69 302.113L278.501 334.165L246.449 343.977L236.637 311.925Z" fill="black"/>
<path d="M304.661 330.54C305.206 330.54 301.826 331.173 346.28 322.113C346.936 321.922 347.491 321.478 347.821 320.88C348.152 320.282 348.233 319.576 348.046 318.919C347.61 317.431 328.766 300.412 319.155 291.554C318.91 291.285 318.611 291.07 318.278 290.922C317.945 290.775 317.585 290.699 317.22 290.699C316.856 290.699 316.496 290.775 316.162 290.922C315.829 291.07 315.53 291.285 315.285 291.554C313.922 293.064 304.089 321.535 302.137 327.253C302.02 327.641 301.997 328.051 302.07 328.449C302.143 328.848 302.309 329.223 302.556 329.544C302.803 329.865 303.122 330.123 303.488 330.296C303.854 330.47 304.256 330.553 304.661 330.54ZM308.477 324.571C311.317 316.346 314.626 306.959 318.185 297.692L340.158 318.117L308.477 324.571Z" fill="black"/>
<path d="M369.392 314.531C372.473 314.562 375.509 313.795 378.206 312.305C380.902 310.815 383.167 308.652 384.781 306.028C386.394 303.403 387.301 300.406 387.412 297.327C387.524 294.248 386.837 291.193 385.418 288.458C376.947 273.866 354.495 274.831 349.937 290.639C349.225 293.539 349.196 296.565 349.851 299.478C350.507 302.392 351.83 305.114 353.715 307.429C355.601 309.745 357.998 311.592 360.718 312.824C363.439 314.056 366.408 314.64 369.392 314.531ZM354.674 292.726C356.931 281.895 372.074 280.145 379.308 288.649C381.118 290.795 382.156 293.487 382.255 296.293C382.354 299.099 381.508 301.857 379.853 304.125C377.839 306.522 375.097 308.195 372.044 308.889C368.992 309.583 365.795 309.26 362.943 307.969C360.091 306.678 357.74 304.49 356.247 301.738C354.754 298.986 354.202 295.821 354.674 292.726Z" fill="black"/>
<path d="M187.251 274.552C184.923 275.188 182.758 276.313 180.899 277.851C179.041 279.39 177.532 281.308 176.474 283.476C175.881 284.851 175.61 286.343 175.683 287.839C175.756 289.335 176.17 290.794 176.894 292.105C178.753 294.913 181.192 297.29 184.047 299.076C186.901 300.862 190.105 302.017 193.443 302.462C200.998 303.901 209.377 303.748 214.032 297.583C222.535 286.338 203.909 270.606 187.251 274.552ZM204.694 282.914C208.99 285.558 213.051 290.202 210.003 294.422C207.518 297.867 202.432 298.908 194.8 297.507C192.114 297.218 189.521 296.354 187.199 294.973C184.876 293.592 182.879 291.727 181.342 289.505C179.161 285.335 183.898 281.116 188.003 279.693C190.851 278.987 193.819 278.91 196.7 279.466C199.582 280.023 202.308 281.199 204.689 282.914H204.694Z" fill="black"/>
<path d="M123.141 278.406C123.383 278.676 123.68 278.892 124.012 279.039C124.343 279.187 124.702 279.263 125.065 279.262C125.899 279.262 124.602 279.807 143.833 270.083C144.24 269.97 144.612 269.759 144.917 269.467C145.222 269.175 145.449 268.812 145.579 268.411C145.71 268.01 145.738 267.582 145.663 267.167C145.587 266.752 145.41 266.362 145.147 266.033C144.749 265.22 142.999 264.681 108.079 251.473C105.512 250.502 103.893 253.719 105.392 255.643L123.141 278.406ZM114.964 259.578L136.823 267.875L125.785 273.446L114.964 259.578Z" fill="black"/>
<path d="M142.944 240.794C162.852 256.831 161.609 256.128 162.901 256.128C163.702 256.128 162.257 256.586 181.194 248.845C189.142 245.575 189.627 245.395 190.009 244.899C190.317 244.622 190.552 244.271 190.69 243.88C190.829 243.49 190.867 243.07 190.802 242.66C190.737 242.251 190.571 241.864 190.318 241.535C190.065 241.206 189.734 240.946 189.355 240.778C170.663 225.956 171.366 226 169.355 226.529C168.81 226.67 169.268 226.561 143.882 236.45C143.455 236.589 143.071 236.838 142.77 237.172C142.469 237.506 142.261 237.913 142.166 238.353C142.071 238.792 142.093 239.249 142.229 239.677C142.366 240.106 142.613 240.491 142.944 240.794ZM149.736 239.704L169.84 231.827L183.211 242.429L163.337 250.606L149.736 239.704Z" fill="black"/>
<path d="M1035.97 592.943C1028.39 590.554 1020.48 589.36 1012.54 589.406C973.669 589.613 945.487 595.871 925.133 626.391C919.961 634.176 915.578 642.457 912.05 651.112C911.925 651.495 911.891 651.902 911.952 652.3C912.012 652.698 912.165 653.077 912.398 653.406C912.631 653.734 912.938 654.004 913.294 654.192C913.651 654.381 914.046 654.483 914.449 654.491C934.732 655.369 960.521 654.006 979.409 646.282C994.829 638.954 1008.89 629.063 1021.01 617.032C1027.44 611.086 1032.98 604.239 1037.45 596.705C1037.64 596.368 1037.76 595.993 1037.79 595.606C1037.82 595.219 1037.76 594.831 1037.62 594.469C1037.47 594.108 1037.25 593.784 1036.97 593.52C1036.68 593.256 1036.35 593.059 1035.97 592.943ZM1031.29 596.846C1017.82 615.244 1000.19 630.199 979.851 640.493C971.029 644.348 961.671 646.835 952.099 647.868C940.893 649.288 929.592 649.817 918.303 649.449C923.585 636.386 931.522 624.562 941.611 614.726C960.363 596.639 989.384 594.448 1012.48 594.557C1018.82 594.504 1025.14 595.274 1031.29 596.846Z" fill="black"/>
<path d="M665.211 350.382L693.185 345.285C696.516 344.68 695.11 339.595 691.785 340.205L663.81 345.302C660.479 345.907 661.891 350.987 665.211 350.382Z" fill="black"/>
<path d="M976.776 553.821C979.382 551.641 975.621 547.912 973.048 550.093C955.167 566.14 939.837 584.819 927.586 605.486C937.605 585.922 932.835 558.416 921.797 541.965C920.047 539.365 916.793 541.502 917.104 542.75C911.064 558.38 909.756 575.442 913.342 591.81C914.891 597.903 917.6 603.641 921.323 608.708C921.521 609.029 921.787 609.303 922.103 609.51C922.418 609.718 922.775 609.854 923.148 609.909C923.521 609.964 923.902 609.936 924.264 609.829C924.626 609.721 924.96 609.536 925.242 609.286C903.376 645.681 887.293 685.251 877.567 726.582C877.36 626.217 877.289 544.276 867.706 459.54C908.044 460.782 945.711 444.822 967.008 410.202C967.206 409.908 967.337 409.575 967.393 409.225C967.45 408.876 967.429 408.518 967.334 408.177C967.239 407.836 967.071 407.52 966.841 407.25C966.612 406.981 966.326 406.764 966.005 406.615C956.978 402.358 947.186 399.958 937.213 399.559C927.24 399.16 917.288 400.77 907.949 404.292C898.61 407.815 890.075 413.179 882.85 420.066C875.625 426.952 869.857 435.221 865.891 444.38C861.675 408.83 855.256 373.575 846.671 338.82C834.696 297.72 812.694 260.239 782.642 229.75C739.846 185.771 703.684 169.08 652.542 145.193C692.16 119.759 698.876 60.7674 678.375 24.6814C678.177 24.342 677.905 24.0521 677.578 23.8339C677.252 23.6158 676.88 23.475 676.491 23.4224C676.102 23.3698 675.706 23.4068 675.333 23.5305C674.961 23.6543 674.621 23.8614 674.341 24.1363C640.272 57.1752 627.609 86.7581 633.289 120.075C634.727 128.589 637.844 136.733 642.458 144.032C624.298 141.675 605.885 142.116 587.86 145.341C572.405 148.007 557.784 154.237 545.156 163.537C532.529 172.837 522.241 184.951 515.11 198.919C514.93 199.251 514.825 199.618 514.801 199.995C514.778 200.371 514.837 200.749 514.974 201.1C515.111 201.452 515.322 201.77 515.594 202.031C515.866 202.293 516.192 202.492 516.549 202.615C539.737 212.239 565.5 213.728 589.642 206.839C603.336 202.29 615.94 194.957 626.663 185.302C637.385 175.646 645.994 163.876 651.948 150.732C697.47 171.991 725.761 184.757 764.479 219.579C798.526 249.62 824.12 288.047 838.717 331.042C843.358 345.645 847.013 360.544 849.658 375.637C860.767 435.435 868.077 490 870.781 585.852C872.416 644.238 872.416 770.528 872.416 771.117C872.447 771.795 872.738 772.435 873.229 772.904C873.72 773.373 874.372 773.635 875.051 773.635C875.73 773.635 876.383 773.373 876.874 772.904C877.365 772.435 877.656 771.795 877.687 771.117C876.711 706.053 925.776 596.301 976.776 553.821ZM923.356 602.434C913.904 586.478 915.348 565.176 920.2 549.406C924.718 557.426 927.347 566.371 927.886 575.56C928.426 584.749 926.861 593.94 923.312 602.434H923.356ZM647.429 142.157C627.325 109.996 639.35 73.8554 657.453 50.5794C662.975 43.4146 668.974 36.6308 675.409 30.2742C696.712 74.9402 678.058 124.545 647.429 142.157ZM646.633 150.001C637.239 169.411 621.926 185.337 602.899 195.485C598.204 198.074 593.276 200.218 588.181 201.89C566.072 208.303 542.461 207.209 521.041 198.777C529.444 183.367 541.956 170.588 557.187 161.863C588.737 143.809 621.367 148.126 646.633 150.001ZM868.028 453.331C870.906 444.123 875.675 435.617 882.03 428.358C888.384 421.099 896.184 415.246 904.931 411.175C913.677 407.103 923.177 404.903 932.823 404.714C942.468 404.524 952.047 406.351 960.947 410.077C927.919 460.466 867.652 454.296 867.101 454.388L867.063 454.089C867.281 454.074 867.49 453.993 867.662 453.858C867.834 453.723 867.962 453.539 868.028 453.331Z" fill="black"/>
<path d="M295.198 483.95C307.883 488.774 320.818 492.906 333.497 497.724C333.831 497.816 334.179 497.841 334.522 497.798C334.866 497.756 335.197 497.645 335.498 497.474C335.799 497.303 336.063 497.074 336.275 496.801C336.487 496.528 336.644 496.216 336.735 495.882C336.909 495.209 336.814 494.495 336.472 493.891C336.129 493.287 335.565 492.84 334.898 492.644C323.38 488.283 311.666 484.435 300.115 480.161L326.176 445.481C326.53 444.878 326.629 444.159 326.452 443.482C326.275 442.805 325.837 442.226 325.233 441.873C324.626 441.532 323.91 441.44 323.237 441.617C322.564 441.794 321.985 442.226 321.625 442.821C312.292 455.239 302.958 467.658 293.623 480.079C292.505 481.567 293.786 483.415 295.198 483.95Z" fill="black"/>
<path d="M349.905 504.74C350.555 504.897 351.24 504.801 351.821 504.471C352.403 504.141 352.836 503.601 353.034 502.963C360.229 478.902 367.343 454.803 373.704 430.507C373.851 429.847 373.739 429.155 373.39 428.575C373.041 427.995 372.483 427.571 371.83 427.391C371.178 427.211 370.481 427.289 369.884 427.608C369.287 427.927 368.836 428.464 368.624 429.106C361.417 453.167 354.32 477.266 347.953 501.562C347.87 501.899 347.854 502.249 347.908 502.592C347.961 502.935 348.082 503.264 348.264 503.559C348.445 503.855 348.684 504.112 348.966 504.315C349.247 504.517 349.567 504.662 349.905 504.74Z" fill="black"/>
<path d="M555.181 687.536C562.058 690.612 569.185 693.098 576.484 694.965C577.152 695.133 577.86 695.033 578.455 694.686C579.051 694.338 579.487 693.772 579.67 693.107C579.853 692.443 579.768 691.733 579.435 691.13C579.101 690.526 578.545 690.078 577.884 689.88C571.031 688.116 564.329 685.81 557.841 682.984C557.232 682.653 556.52 682.566 555.85 682.742C555.18 682.917 554.601 683.341 554.232 683.927C553.881 684.532 553.784 685.251 553.961 685.927C554.139 686.604 554.578 687.182 555.181 687.536Z" fill="black"/>
<path d="M498.839 298.826C499.506 298.806 500.141 298.532 500.614 298.06C501.087 297.588 501.362 296.954 501.384 296.286V247.831C501.353 247.153 501.062 246.513 500.571 246.044C500.08 245.575 499.428 245.313 498.749 245.313C498.07 245.313 497.417 245.575 496.926 246.044C496.435 246.513 496.144 247.153 496.113 247.831V296.286C496.125 296.632 496.205 296.972 496.349 297.287C496.492 297.602 496.696 297.885 496.949 298.121C497.202 298.357 497.5 298.541 497.824 298.662C498.148 298.783 498.493 298.838 498.839 298.826Z" fill="black"/>
<path d="M554.685 251.647C554.078 251.307 553.362 251.216 552.689 251.393C552.016 251.57 551.438 252.001 551.076 252.596C547.015 257.921 516.407 298.025 514.903 299.987C514.552 300.592 514.454 301.311 514.632 301.987C514.81 302.664 515.248 303.242 515.851 303.596C516.458 303.934 517.172 304.024 517.844 303.847C518.516 303.67 519.093 303.24 519.455 302.647C523.527 297.322 554.129 257.224 555.628 255.256C555.98 254.652 556.078 253.933 555.901 253.257C555.724 252.581 555.287 252.002 554.685 251.647Z" fill="black"/>
<path d="M532.989 320.494C533.353 321.087 533.931 321.516 534.604 321.692C535.277 321.867 535.991 321.776 536.598 321.437L578.511 303.596C579.114 303.242 579.553 302.664 579.731 301.987C579.908 301.311 579.811 300.592 579.46 299.987C579.098 299.394 578.521 298.964 577.849 298.788C577.176 298.612 576.462 298.704 575.857 299.044L533.938 316.885C533.335 317.239 532.896 317.818 532.718 318.494C532.541 319.17 532.638 319.889 532.989 320.494Z" fill="black"/>
<path d="M368.558 628.086L340.84 656.176C338.458 658.59 342.181 662.319 344.568 659.904L372.287 631.815C374.669 629.4 370.946 625.666 368.558 628.086Z" fill="black"/>
<path d="M389.866 632.327C389.193 632.143 388.474 632.234 387.867 632.579C387.26 632.925 386.815 633.497 386.629 634.17L379.618 678.623C379.456 679.297 379.556 680.007 379.898 680.609C380.24 681.212 380.799 681.661 381.461 681.867C382.135 682.051 382.855 681.96 383.463 681.615C384.071 681.27 384.517 680.698 384.704 680.024C384.704 680.024 391.425 637.397 391.709 635.571C391.872 634.897 391.772 634.187 391.429 633.585C391.087 632.982 390.528 632.533 389.866 632.327Z" fill="black"/>
<path d="M414.282 634.17C414.077 633.508 413.627 632.949 413.025 632.607C412.422 632.265 411.712 632.165 411.038 632.327C410.366 632.516 409.795 632.963 409.451 633.57C409.107 634.178 409.017 634.897 409.201 635.571C413.666 647.018 423.838 673.09 424.464 674.687C424.663 675.353 425.11 675.916 425.713 676.259C426.317 676.602 427.029 676.699 427.702 676.53C428.377 676.344 428.95 675.898 429.295 675.29C429.641 674.681 429.73 673.961 429.545 673.287C429.294 672.654 414.533 634.802 414.282 634.17Z" fill="black"/>
<path d="M414.571 634.911L414.609 635.01L414.571 634.911Z" fill="black"/>
<path d="M58.9435 515.604C59.5934 515.764 60.28 515.669 60.862 515.339C61.444 515.008 61.8772 514.467 62.0725 513.827C66.9986 496.289 76.4441 480.353 89.464 467.613C91.917 465.258 88.183 461.535 85.7409 463.884C71.822 477.059 61.8641 493.863 56.9921 512.399C56.9061 512.737 56.8886 513.09 56.9406 513.435C56.9925 513.781 57.1129 514.113 57.2946 514.411C57.4763 514.71 57.7158 514.969 57.9989 515.174C58.282 515.378 58.6032 515.525 58.9435 515.604Z" fill="black"/>
<path d="M75.3949 450.229C58.7336 465.113 45.6171 483.54 37.0085 504.157C36.9158 504.49 36.8898 504.839 36.932 505.182C36.9741 505.526 37.0837 505.858 37.2543 506.159C37.4249 506.461 37.6533 506.725 37.9264 506.938C38.1994 507.151 38.5118 507.308 38.8456 507.4C39.5226 507.581 40.2434 507.49 40.8544 507.146C41.4654 506.803 41.9181 506.235 42.1162 505.563C50.477 485.824 63.1279 468.194 79.1507 453.952C81.6636 451.696 77.897 447.972 75.3949 450.229Z" fill="black"/>
<path d="M230.908 281.546C231.263 282.149 231.842 282.586 232.518 282.763C233.194 282.939 233.913 282.841 234.517 282.489C235.111 282.129 235.542 281.551 235.718 280.879C235.894 280.206 235.801 279.492 235.46 278.886L222.623 251.276C222.264 250.679 221.683 250.247 221.007 250.076C220.331 249.904 219.615 250.007 219.014 250.361C218.42 250.721 217.989 251.299 217.813 251.971C217.637 252.644 217.73 253.358 218.071 253.964L230.908 281.546Z" fill="black"/>
<path d="M242.203 276.733C242.402 277.404 242.855 277.972 243.466 278.315C244.076 278.658 244.796 278.749 245.474 278.57C245.807 278.478 246.12 278.321 246.393 278.108C246.666 277.895 246.894 277.631 247.065 277.329C247.235 277.028 247.345 276.696 247.387 276.352C247.429 276.009 247.403 275.66 247.311 275.327L235.961 246.491C235.755 245.83 235.305 245.272 234.703 244.931C234.1 244.59 233.391 244.491 232.718 244.654C232.044 244.839 231.471 245.286 231.125 245.894C230.78 246.502 230.69 247.222 230.876 247.897L242.203 276.733Z" fill="black"/>
<path d="M195.972 240.102C196.177 240.764 196.627 241.323 197.229 241.665C197.832 242.007 198.542 242.107 199.216 241.944C199.889 241.757 200.461 241.311 200.805 240.703C201.149 240.094 201.238 239.375 201.053 238.701C197.393 229.554 193.734 220.404 190.074 211.249C189.869 210.588 189.42 210.029 188.817 209.686C188.215 209.344 187.504 209.244 186.831 209.407C186.158 209.594 185.586 210.041 185.242 210.649C184.897 211.257 184.808 211.977 184.994 212.65C188.653 221.801 192.313 230.951 195.972 240.102Z" fill="black"/>
<path d="M397.978 309.118C398.644 309.093 399.276 308.818 399.747 308.347C400.218 307.876 400.494 307.243 400.518 306.578C400.833 295.951 400.41 285.316 399.253 274.749C399.23 274.057 398.944 273.4 398.455 272.911C397.965 272.422 397.307 272.138 396.615 272.116C395.917 272.116 395.247 272.393 394.753 272.887C394.259 273.381 393.982 274.05 393.982 274.749C395.117 285.318 395.54 295.952 395.247 306.578C395.274 307.276 395.576 307.935 396.088 308.411C396.6 308.887 397.279 309.141 397.978 309.118Z" fill="black"/>
</svg>
